<?xml version="1.0" standalone="no"?>
<!DOCTYPE svg PUBLIC "-//W3C//DTD SVG 20010904//EN"
 "http://www.w3.org/TR/2001/REC-SVG-20010904/DTD/svg10.dtd">
<svg version="1.0" xmlns="http://www.w3.org/2000/svg"
 width="585.000000pt" height="427.000000pt" viewBox="0 0 585.000000 427.000000"
 preserveAspectRatio="xMidYMid meet">

<g transform="translate(0.000000,427.000000) scale(0.100000,-0.100000)"
fill="#000000" stroke="none">
<path d="M2730 3745 c-677 -85 -1216 -556 -1384 -1210 -46 -181 -59 -440 -31
-639 74 -527 422 -1001 895 -1219 197 -91 314 -126 511 -152 152 -20 268 -19
424 4 674 100 1200 576 1355 1226 25 107 50 296 50 378 0 183 -54 446 -129
625 -229 549 -727 921 -1321 988 -148 16 -229 16 -370 -1z m-492 -677 c127
-63 200 -159 223 -294 25 -141 4 -158 -202 -162 -163 -4 -206 6 -227 54 -7 13
-14 86 -17 162 -7 165 6 259 39 272 35 15 117 1 184 -32z m1562 22 c21 -21 21
-28 17 -618 -3 -577 -4 -599 -24 -657 -71 -201 -178 -362 -301 -453 -196 -145
-357 -202 -571 -202 -373 0 -701 232 -842 595 -57 146 -74 305 -39 362 30 51
47 55 205 51 167 -4 187 -12 219 -94 55 -141 87 -197 148 -257 174 -172 403
-181 606 -24 66 50 109 111 135 191 18 55 20 100 26 441 7 367 8 382 30 439
39 99 134 185 250 228 65 23 116 23 141 -2z m-878 -471 c26 -30 30 -68 26
-253 l-3 -168 -28 -24 c-28 -24 -32 -24 -218 -24 l-191 0 -28 29 -29 28 5 199
c4 162 8 202 21 216 13 15 38 18 162 20 219 4 263 1 283 -23z"/>
</g>
</svg>
